<svg width="42" height="42" viewBox="0 0 42 42" fill="none" xmlns="http://www.w3.org/2000/svg">
<mask id="path-1-inside-1_43_489" fill="white">
<path d="M16.243 1.97058C18.8705 -0.656824 23.1302 -0.656824 25.7577 1.97058C28.2812 4.49404 30.197 7.39451 31.5087 10.4901C34.605 11.8018 37.5062 13.7181 40.0302 16.2421C42.6576 18.8695 42.6576 23.1293 40.0302 25.7567C37.5065 28.2803 34.6055 30.196 31.5096 31.5077C30.198 34.6038 28.2816 37.5053 25.7577 40.0292C23.1302 42.6562 18.8704 42.6564 16.243 40.0292C13.7191 37.5053 11.8028 34.6039 10.4911 31.5077C7.39525 30.196 4.49422 28.2803 1.97058 25.7567C-0.656824 23.1293 -0.65683 18.8695 1.97058 16.2421C4.49432 13.7184 7.39511 11.8018 10.4911 10.4901C11.8027 7.39441 13.7195 4.49413 16.243 1.97058Z"/>
</mask>
<path d="M16.243 1.97058C18.8705 -0.656824 23.1302 -0.656824 25.7577 1.97058C28.2812 4.49404 30.197 7.39451 31.5087 10.4901C34.605 11.8018 37.5062 13.7181 40.0302 16.2421C42.6576 18.8695 42.6576 23.1293 40.0302 25.7567C37.5065 28.2803 34.6055 30.196 31.5096 31.5077C30.198 34.6038 28.2816 37.5053 25.7577 40.0292C23.1302 42.6562 18.8704 42.6564 16.243 40.0292C13.7191 37.5053 11.8028 34.6039 10.4911 31.5077C7.39525 30.196 4.49422 28.2803 1.97058 25.7567C-0.656824 23.1293 -0.65683 18.8695 1.97058 16.2421C4.49432 13.7184 7.39511 11.8018 10.4911 10.4901C11.8027 7.39441 13.7195 4.49413 16.243 1.97058Z" fill="#FEFEFE"/>
<path d="M16.243 1.97058L13.4146 -0.857877L13.4146 -0.857841L16.243 1.97058ZM25.7577 1.97058L28.5861 -0.85787L28.5861 -0.857877L25.7577 1.97058ZM31.5087 10.4901L27.8256 12.0507L28.4574 13.5416L29.9484 14.1733L31.5087 10.4901ZM40.0302 16.2421L42.8585 13.4136L42.8585 13.4136L40.0302 16.2421ZM40.0302 25.7567L42.8585 28.5852V28.5852L40.0302 25.7567ZM31.5096 31.5077L29.9492 27.8246L28.4582 28.4563L27.8265 29.9473L31.5096 31.5077ZM25.7577 40.0292L28.5859 42.8578L28.5861 42.8576L25.7577 40.0292ZM16.243 40.0292L13.4146 42.8576L13.4147 42.8577L16.243 40.0292ZM10.4911 31.5077L14.1742 29.9474L13.5425 28.4563L12.0515 27.8246L10.4911 31.5077ZM1.97058 25.7567L-0.857842 28.5851L-0.857815 28.5852L1.97058 25.7567ZM1.97058 16.2421L-0.857815 13.4136L-0.857836 13.4136L1.97058 16.2421ZM10.4911 10.4901L12.0515 14.1732L13.5424 13.5415L14.1741 12.0506L10.4911 10.4901ZM16.243 1.97058L19.0714 4.79904C20.1368 3.73369 21.8639 3.73369 22.9293 4.79904L25.7577 1.97058L28.5861 -0.857877C24.3965 -5.04734 17.6042 -5.04734 13.4146 -0.857877L16.243 1.97058ZM25.7577 1.97058L22.9293 4.79903C25.0819 6.95164 26.7107 9.41938 27.8256 12.0507L31.5087 10.4901L35.1917 8.92954C33.6833 5.36965 31.4805 2.03645 28.5861 -0.85787L25.7577 1.97058ZM31.5087 10.4901L29.9484 14.1733C32.5801 15.2881 35.0486 16.9174 37.2018 19.0705L40.0302 16.2421L42.8585 13.4136C39.9638 10.5189 36.6298 8.31543 33.0689 6.80696L31.5087 10.4901ZM40.0302 16.2421L37.2018 19.0705C38.2671 20.1358 38.2671 21.863 37.2018 22.9283L40.0302 25.7567L42.8585 28.5852C47.0481 24.3957 47.0481 17.6031 42.8585 13.4136L40.0302 16.2421ZM40.0302 25.7567L37.2018 22.9283C35.0491 25.0808 32.5809 26.7096 29.9492 27.8246L31.5096 31.5077L33.0701 35.1908C36.6301 33.6825 39.9639 31.4798 42.8585 28.5852L40.0302 25.7567ZM31.5096 31.5077L27.8265 29.9473C26.7116 32.5791 25.0823 35.0478 22.9293 37.2007L25.7577 40.0292L28.5861 42.8576C31.4809 39.9629 33.6843 36.6286 35.1927 33.0681L31.5096 31.5077ZM25.7577 40.0292L22.9295 37.2005C21.864 38.2659 20.1366 38.2658 19.0714 37.2006L16.243 40.0292L13.4147 42.8577C17.6043 47.047 24.3965 47.0466 28.5859 42.8578L25.7577 40.0292ZM16.243 40.0292L19.0714 37.2007C16.9184 35.0477 15.2892 32.5791 14.1742 29.9474L10.4911 31.5077L6.80797 33.068C8.31641 36.6286 10.5198 39.9628 13.4146 42.8576L16.243 40.0292ZM10.4911 31.5077L12.0515 27.8246C9.41981 26.7096 6.95159 25.0808 4.79898 22.9283L1.97058 25.7567L-0.857815 28.5852C2.03685 31.4798 5.37068 33.6825 8.93064 35.1908L10.4911 31.5077ZM1.97058 25.7567L4.799 22.9283C3.7337 21.863 3.7337 20.1358 4.799 19.0705L1.97058 16.2421L-0.857836 13.4136C-5.04736 17.6031 -5.04734 24.3957 -0.857842 28.5851L1.97058 25.7567ZM1.97058 16.2421L4.79898 19.0705C6.95216 16.9174 9.42029 15.2879 12.0515 14.1732L10.4911 10.4901L8.93069 6.80702C5.36993 8.31559 2.03648 10.5194 -0.857815 13.4136L1.97058 16.2421ZM10.4911 10.4901L14.1741 12.0506C15.2887 9.41992 16.9183 6.95222 19.0715 4.799L16.243 1.97058L13.4146 -0.857841C10.5207 2.03605 8.3167 5.36889 6.80804 8.92962L10.4911 10.4901Z" fill="#0670D4" mask="url(#path-1-inside-1_43_489)"/>
</svg>
